<svg width="448" height="513" viewBox="0 0 448 513" fill="none" xmlns="http://www.w3.org/2000/svg">
<path d="M1.12528 228.246C2.78928 232.235 6.67227 234.838 10.9813 234.838L127.866 234.838L127.866 501.504C127.866 507.392 132.645 512.171 138.533 512.171L309.2 512.171C315.088 512.171 319.867 507.392 319.867 501.504L319.867 234.837L437.2 234.837C441.509 234.837 445.392 232.234 447.056 228.266C448.699 224.277 447.803 219.69 444.752 216.639L231.952 3.13503C229.947 1.13003 227.237 -0.000957274 224.4 -0.000957026C221.563 -0.000956778 218.853 1.13003 216.848 3.11403L3.42926 216.618C0.378265 219.67 -0.53872 224.256 1.12528 228.246Z" fill="#878A8C"/>
</svg>
