<svg width="448" height="513" viewBox="0 0 448 513" fill="none" xmlns="http://www.w3.org/2000/svg">
<path d="M0.820593 228.247C2.48459 232.236 6.36758 234.839 10.6766 234.839L127.562 234.839L127.562 501.505C127.562 507.393 132.341 512.172 138.229 512.172L308.896 512.172C314.784 512.172 319.563 507.393 319.563 501.505L319.563 234.838L436.896 234.838C441.205 234.838 445.088 232.235 446.752 228.267C448.395 224.278 447.499 219.691 444.448 216.64L231.648 3.13601C229.643 1.13101 226.933 1.92881e-05 224.096 1.95361e-05C221.259 1.97841e-05 218.549 1.13101 216.544 3.11501L3.12458 216.619C0.0735776 219.671 -0.843408 224.257 0.820593 228.247Z" fill="#FF4500"/>
</svg>
