<svg width="448" height="513" viewBox="0 0 448 513" fill="none" xmlns="http://www.w3.org/2000/svg">
<path d="M446.742 283.925C445.078 279.936 441.195 277.333 436.886 277.333L320.001 277.333L320.001 10.6671C320.001 4.77906 315.222 5.51151e-05 309.334 5.40857e-05L138.667 2.42453e-05C132.779 2.32158e-05 128 4.77902 128 10.667L128 277.334L10.6669 277.334C6.35785 277.334 2.47486 279.937 0.810855 283.905C-0.832145 287.894 0.0638508 292.481 3.11485 295.532L215.915 509.036C217.92 511.041 220.63 512.172 223.467 512.172C226.304 512.172 229.014 511.041 231.019 509.057L444.438 295.553C447.489 292.501 448.406 287.915 446.742 283.925Z" fill="#878A8C"/>
</svg>
