<svg width="3525" height="3525" viewBox="0 0 3525 3525" fill="none" xmlns="http://www.w3.org/2000/svg">
<rect x="609" y="665" width="2307" height="2194" fill="white"/>
<path d="M2131.56 2363.87C2052.6 2442.83 1883.41 2471.01 1762.85 2471.01C1641.94 2471.01 1473.1 2442.83 1394.14 2363.87C1375.45 2345.18 1345.49 2345.18 1326.82 2363.87C1308.13 2382.56 1308.13 2412.52 1326.82 2431.18C1451.96 2556.32 1692.36 2566.19 1762.85 2566.19C1833.34 2566.19 2073.39 2556.32 2198.9 2431.18C2217.22 2412.49 2217.22 2382.53 2198.9 2363.87C2180.21 2345.18 2150.25 2345.18 2131.56 2363.87Z" fill="#FF4500"/>
<path d="M1542.19 1946.16C1542.19 1844.98 1459.7 1762.5 1358.53 1762.5C1257.38 1762.5 1174.87 1844.98 1174.87 1946.16C1174.87 2047.3 1257.38 2129.81 1358.53 2129.81C1459.7 2129.81 1542.19 2047.33 1542.19 1946.16Z" fill="#FF4500"/>
<path d="M1762.5 0C789.247 0 0 789.247 0 1762.5C0 2735.75 789.247 3525 1762.5 3525C2735.75 3525 3525 2735.75 3525 1762.5C3525 789.247 2735.75 0 1762.5 0ZM2785.1 1997.6C2788.98 2022.99 2791.1 2048.73 2791.1 2074.82C2791.1 2470.31 2330.74 2790.75 1762.85 2790.75C1194.96 2790.75 734.599 2470.31 734.599 2074.82C734.599 2048.38 736.724 2022.29 740.596 1996.9C651.068 1956.73 588.674 1866.85 588.674 1762.5C588.674 1620.8 703.591 1505.53 845.643 1505.53C914.733 1505.53 977.126 1532.67 1023.3 1577.1C1201.66 1448.44 1448.44 1366.28 1723.02 1359.23C1723.02 1355.71 1851.33 744.469 1851.33 744.469C1853.8 732.501 1860.85 722.255 1871.07 715.585C1881.29 708.889 1893.63 706.764 1905.63 709.238L2332.86 800.166C2362.82 739.548 2424.49 697.594 2496.75 697.594C2598.27 697.594 2680.41 779.727 2680.41 881.25C2680.41 982.773 2598.27 1064.91 2496.75 1064.91C2398.4 1064.91 2318.74 987.345 2314.17 890.071L1931.69 808.637L1814.67 1359.61C2084.34 1369.1 2326.51 1450.88 2502.05 1577.79C2548.22 1533.04 2610.97 1505.53 2680.41 1505.53C2822.48 1505.53 2937.37 1620.45 2937.37 1762.5C2937.37 1867.55 2874.28 1957.42 2785.1 1997.6Z" fill="#FF4500"/>
<path d="M2166.47 1762.5C2065.3 1762.5 1982.81 1844.98 1982.81 1946.16C1982.81 2047.3 2065.3 2129.81 2166.47 2129.81C2267.62 2129.81 2350.13 2047.3 2350.13 1946.16C2350.13 1844.98 2267.64 1762.5 2166.47 1762.5Z" fill="#FF4500"/>
</svg>
