<svg width="5207" height="1340" viewBox="0 0 5207 1340" fill="none" xmlns="http://www.w3.org/2000/svg">
<rect x="202.235" y="257.355" width="949.975" height="839.353" fill="white"/>
<path d="M810.296 898.604C780.28 928.62 715.965 939.334 670.133 939.334C624.169 939.334 559.987 928.62 529.971 898.604C522.866 891.499 511.477 891.499 504.382 898.604C497.276 905.71 497.276 917.098 504.382 924.193C551.951 971.763 643.338 975.515 670.133 975.515C696.929 975.515 788.183 971.763 835.896 924.193C842.858 917.088 842.858 905.699 835.896 898.604C828.79 891.499 817.401 891.499 810.296 898.604V898.604Z" fill="#1C1C1C"/>
<path d="M586.251 739.816C586.251 701.355 554.896 670 516.436 670C477.985 670 446.62 701.355 446.62 739.816C446.62 778.266 477.985 809.631 516.436 809.631C554.896 809.631 586.251 778.276 586.251 739.816Z" fill="#1C1C1C"/>
<path d="M670 0C300.026 0 0 300.026 0 670C0 1039.97 300.026 1340 670 1340C1039.97 1340 1340 1039.97 1340 670C1340 300.026 1039.97 0 670 0ZM1058.73 759.373C1060.21 769.024 1061.01 778.808 1061.01 788.724C1061.01 939.069 886.01 1060.88 670.133 1060.88C454.256 1060.88 279.252 939.069 279.252 788.724C279.252 778.675 280.06 768.758 281.532 759.107C247.498 743.833 223.78 709.667 223.78 670C223.78 616.133 267.464 572.316 321.464 572.316C347.728 572.316 371.446 582.631 389 599.52C456.801 550.611 550.611 519.379 654.992 516.7C654.992 515.361 703.768 283.004 703.768 283.004C704.708 278.454 707.387 274.559 711.272 272.024C715.157 269.478 719.849 268.671 724.409 269.611L886.818 304.176C898.206 281.133 921.649 265.184 949.119 265.184C987.712 265.184 1018.93 296.407 1018.93 335C1018.93 373.593 987.712 404.816 949.119 404.816C911.732 404.816 881.45 375.331 879.712 338.353L734.315 307.397L689.833 516.843C792.343 520.452 884.405 551.542 951.133 599.786C968.687 582.774 992.538 572.316 1018.93 572.316C1072.94 572.316 1116.62 616 1116.62 670C1116.62 709.933 1092.63 744.099 1058.73 759.373V759.373Z" fill="#1C1C1C"/>
<path d="M823.566 670C785.105 670 753.75 701.355 753.75 739.816C753.75 778.266 785.105 809.631 823.566 809.631C862.016 809.631 893.381 778.266 893.381 739.816C893.381 701.355 862.026 670 823.566 670V670Z" fill="#1C1C1C"/>
<path d="M1740 1089C1740 1107.67 1734 1123.33 1722 1136C1710 1148.67 1695 1155 1677 1155C1659 1155 1643.67 1148.67 1631 1136C1618.33 1123.33 1612 1108 1612 1090V428C1612 410.667 1618 395.667 1630 383C1642.67 369.667 1658.33 363 1677 363C1694.33 363 1709 369.667 1721 383C1733.67 395.667 1740 410.667 1740 428V1089ZM2198.54 663V655C2198.54 639.667 2204.54 626.667 2216.54 616C2228.54 605.333 2242.87 600 2259.54 600C2277.54 600 2292.54 605.333 2304.54 616C2316.54 626.667 2322.54 639.667 2322.54 655V1094C2322.54 1111.33 2316.21 1126 2303.54 1138C2291.54 1149.33 2276.54 1155 2258.54 1155C2241.21 1155 2226.54 1149.33 2214.54 1138C2203.21 1126 2197.54 1111.33 2197.54 1094V1084C2172.87 1112.67 2150.87 1131.67 2131.54 1141C2112.87 1150.33 2087.54 1155 2055.54 1155C1987.54 1155 1930.54 1128.67 1884.54 1076C1839.21 1022.67 1816.54 956.667 1816.54 878C1816.54 798.667 1839.54 732.333 1885.54 679C1931.54 625.667 1988.54 599 2056.54 599C2087.87 599 2112.54 603 2130.54 611C2148.54 619 2171.21 636.333 2198.54 663ZM2072.54 714C2035.21 714 2004.87 729 1981.54 759C1958.21 789 1946.54 828.667 1946.54 878C1946.54 926.667 1957.87 966 1980.54 996C2003.21 1026 2033.21 1041 2070.54 1041C2109.87 1041 2140.54 1026.67 2162.54 998C2184.54 969.333 2195.54 929 2195.54 877C2195.54 827 2184.54 787.333 2162.54 758C2140.54 728.667 2110.54 714 2072.54 714ZM2544.55 1089V1094C2544.55 1110.67 2538.88 1125.33 2527.55 1138C2516.88 1150 2503.55 1156 2487.55 1156C2469.55 1156 2454.21 1150 2441.55 1138C2428.88 1126 2422.55 1111.33 2422.55 1094V428C2422.55 410.667 2428.88 395.667 2441.55 383C2454.21 370.333 2469.88 364 2488.55 364C2505.21 364 2519.88 370.333 2532.55 383C2545.21 395.667 2551.55 410.667 2551.55 428V656C2576.21 633.333 2597.55 618 2615.55 610C2634.21 602 2658.21 598 2687.55 598C2754.88 598 2811.21 624.333 2856.55 677C2901.88 729.667 2924.55 795.333 2924.55 874C2924.55 954 2902.21 1021 2857.55 1075C2812.88 1129 2756.88 1156 2689.55 1156C2655.55 1156 2628.88 1151.67 2609.55 1143C2590.88 1133.67 2569.21 1115.67 2544.55 1089ZM2670.55 716C2633.21 716 2603.21 731 2580.55 761C2558.55 790.333 2547.55 829.667 2547.55 879C2547.55 929 2558.55 968.667 2580.55 998C2603.21 1026.67 2633.55 1041 2671.55 1041C2708.88 1041 2738.88 1026 2761.55 996C2784.21 966 2795.55 926.667 2795.55 878C2795.55 829.333 2783.88 790.333 2760.55 761C2737.88 731 2707.88 716 2670.55 716ZM3116.65 919C3120.65 933.667 3124.65 946.333 3128.65 957C3133.32 967.667 3138.32 977.667 3143.65 987C3153.65 1004.33 3168.98 1018 3189.65 1028C3210.32 1038 3232.65 1043 3256.65 1043C3293.32 1043 3328.98 1032 3363.65 1010C3378.32 1000 3389.65 993.333 3397.65 990C3406.32 986 3414.32 984 3421.65 984C3438.32 984 3451.65 989 3461.65 999C3471.65 1009 3476.65 1021.67 3476.65 1037C3476.65 1053 3469.32 1068.33 3454.65 1083C3402.65 1131.67 3334.32 1156 3249.65 1156C3170.32 1156 3105.32 1130.33 3054.65 1079C3003.98 1027.67 2978.65 961.333 2978.65 880C2978.65 800.667 3003.32 734 3052.65 680C3101.98 626 3162.98 599 3235.65 599C3312.32 599 3373.98 628 3420.65 686C3439.32 708.667 3454.98 737 3467.65 771C3480.32 804.333 3486.65 835 3486.65 863C3486.65 883.667 3481.98 898.333 3472.65 907C3463.32 915.667 3446.98 920 3423.65 920L3116.65 919ZM3236.65 703C3169.32 703 3128.65 746.667 3114.65 834H3356.65C3341.98 746.667 3301.98 703 3236.65 703ZM3906.41 662V428C3906.41 410.667 3912.74 395.667 3925.41 383C3938.07 370.333 3953.74 364 3972.41 364C3990.41 364 4005.41 370.333 4017.41 383C4029.41 395.667 4035.41 411 4035.41 429V1094C4035.41 1110.67 4029.07 1125 4016.41 1137C4003.74 1149 3988.74 1155 3971.41 1155C3954.74 1155 3940.07 1149.33 3927.41 1138C3915.41 1126 3909.41 1111.33 3909.41 1094V1082C3884.07 1111.33 3862.07 1130.67 3843.41 1140C3824.74 1149.33 3799.41 1154 3767.41 1154C3701.41 1154 3645.41 1127.33 3599.41 1074C3553.41 1020.67 3530.41 955 3530.41 877C3530.41 797.667 3553.41 731.667 3599.41 679C3646.07 625.667 3703.74 599 3772.41 599C3801.74 599 3825.07 603 3842.41 611C3859.74 619 3881.07 636 3906.41 662ZM3785.41 717C3749.41 717 3719.41 732.333 3695.41 763C3672.07 793 3660.41 831 3660.41 877C3660.41 924.333 3671.74 963 3694.41 993C3717.07 1022.33 3746.41 1037 3782.41 1037C3821.07 1037 3851.74 1023 3874.41 995C3897.07 967 3908.41 929.333 3908.41 882C3908.41 832 3897.41 792 3875.41 762C3853.41 732 3823.41 717 3785.41 717ZM4488.44 662V428C4488.44 410.667 4494.77 395.667 4507.44 383C4520.1 370.333 4535.77 364 4554.44 364C4572.44 364 4587.44 370.333 4599.44 383C4611.44 395.667 4617.44 411 4617.44 429V1094C4617.44 1110.67 4611.1 1125 4598.44 1137C4585.77 1149 4570.77 1155 4553.44 1155C4536.77 1155 4522.1 1149.33 4509.44 1138C4497.44 1126 4491.44 1111.33 4491.44 1094V1082C4466.1 1111.33 4444.1 1130.67 4425.44 1140C4406.77 1149.33 4381.44 1154 4349.44 1154C4283.44 1154 4227.44 1127.33 4181.44 1074C4135.44 1020.67 4112.44 955 4112.44 877C4112.44 797.667 4135.44 731.667 4181.44 679C4228.1 625.667 4285.77 599 4354.44 599C4383.77 599 4407.1 603 4424.44 611C4441.77 619 4463.1 636 4488.44 662ZM4367.44 717C4331.44 717 4301.44 732.333 4277.44 763C4254.1 793 4242.44 831 4242.44 877C4242.44 924.333 4253.77 963 4276.44 993C4299.1 1022.33 4328.44 1037 4364.44 1037C4403.1 1037 4433.77 1023 4456.44 995C4479.1 967 4490.44 929.333 4490.44 882C4490.44 832 4479.44 792 4457.44 762C4435.44 732 4405.44 717 4367.44 717ZM4845.47 1090C4845.47 1108 4839.47 1123.33 4827.47 1136C4815.47 1148.67 4800.47 1155 4782.47 1155C4764.47 1155 4749.14 1148.67 4736.47 1136C4723.8 1123.33 4717.47 1108.33 4717.47 1091V664C4717.47 646.667 4723.8 631.667 4736.47 619C4749.14 606.333 4764.47 600 4782.47 600C4799.14 600 4813.8 606.333 4826.47 619C4839.14 631.667 4845.47 647 4845.47 665V1090ZM4705.47 470C4705.47 448.667 4712.8 431 4727.47 417C4742.8 402.333 4761.14 395 4782.47 395C4802.47 395 4819.8 402.333 4834.47 417C4849.14 431.667 4856.47 449.667 4856.47 471C4856.47 492.333 4849.14 510.333 4834.47 525C4820.47 539 4803.14 546 4782.47 546C4761.14 546 4742.8 539 4727.47 525C4712.8 510.333 4705.47 492 4705.47 470ZM4976.98 721H4944.98C4928.98 721 4914.98 715.333 4902.98 704C4890.98 692.667 4884.98 679.333 4884.98 664C4884.98 648 4890.65 634.667 4901.98 624C4913.32 613.333 4927.65 608 4944.98 608H4975.98V506C4975.98 488 4981.98 472.667 4993.98 460C5005.98 447.333 5021.32 441 5039.98 441C5057.32 441 5072.32 447.333 5084.98 460C5097.65 472.667 5103.98 488 5103.98 506L5101.98 608H5148.98C5164.98 608 5178.65 613.667 5189.98 625C5201.32 636.333 5206.98 649.667 5206.98 665C5206.98 681 5201.32 694.333 5189.98 705C5178.65 715.667 5164.65 721 5147.98 721H5101.98L5103.98 1089C5103.98 1106.33 5097.65 1121.67 5084.98 1135C5072.98 1147.67 5057.98 1154 5039.98 1154C5022.65 1154 5007.65 1148 4994.98 1136C4982.98 1123.33 4976.98 1108 4976.98 1090V721Z" fill="#1C1C1C"/>
<path d="M4883 473.5C4883 527.348 4839.35 571 4785.5 571C4731.65 571 4688 527.348 4688 473.5C4688 419.652 4731.65 376 4785.5 376C4839.35 376 4883 419.652 4883 473.5Z" fill="#1C1C1C"/>
</svg>
